<svg xmlns="http://www.w3.org/2000/svg" xmlns:xlink="http://www.w3.org/1999/xlink" version="1.1" id="Layer_1" x="0px" y="0px" enable-background="new 0 0 1024 1024" xml:space="preserve" viewBox="152.1 404.44 722.04 217.55">

<path fill="#3A3F43" opacity="1.000000" stroke="none" d=" M182.176483,570.743042   C180.613983,566.471863 178.205963,562.492737 178.162292,558.487854   C177.842529,529.163574 178.038284,499.834076 177.978241,470.506439   C177.958023,460.632294 181.487457,453.215851 190.494995,448.140991   C213.849030,434.983246 237.008682,421.477173 260.139526,407.928467   C268.637573,402.950836 276.143524,403.397430 284.693176,408.661255   C304.835022,421.062042 325.519531,432.581085 345.977905,444.468231   C349.837769,446.710999 353.794525,448.818481 357.481842,451.319733   C363.903870,455.676056 366.471100,462.888580 363.004425,469.812378   C358.882751,478.044312 353.686371,485.742645 348.837891,493.599487   C348.342346,494.402527 347.041534,494.708679 344.978516,495.902985   C344.978516,489.188812 344.729431,483.455994 345.040649,477.753723   C345.442841,470.385010 342.804810,465.192688 336.207306,461.479645   C319.623566,452.146393 303.274902,442.396515 286.765564,432.929535   C281.808624,430.087097 277.194611,425.947113 270.815918,427.077881   C267.945679,427.586670 264.851532,428.044250 262.389954,429.452911   C244.439575,439.725159 226.740768,450.440826 208.710648,460.568024   C201.206604,464.782959 197.814804,470.460632 197.917526,479.007935   C198.155807,498.834961 197.930878,518.667175 198.059464,538.496155   C198.095917,544.114624 197.736862,550.035522 199.384872,555.239624   C200.509888,558.792297 204.471725,561.789429 207.763809,564.226074   C211.858566,567.256836 216.632370,569.354675 220.978378,572.070679   C222.321136,572.909790 223.224380,574.452209 224.960175,576.370178   C217.868179,577.718933 211.964233,579.038818 205.996399,579.931519   C196.555450,581.343689 188.899933,577.654541 182.176483,570.743042  z" data-index="0" style="opacity: 1;"></path>
<path fill="#089AD9" opacity="1.000000" stroke="none" d=" M327.970123,547.956177   C314.553741,556.971069 301.834015,566.481750 288.316193,574.675659   C277.702118,581.109558 266.426086,586.757202 254.852631,591.220581   C242.047348,596.159058 228.949570,600.763977 215.040894,602.022217   C208.839096,602.583191 202.620667,604.122192 196.471069,603.847168   C185.042633,603.335938 173.746536,601.116577 164.530716,593.718079   C153.361206,584.751221 150.187759,572.673584 153.134766,558.985474   C155.741821,546.876404 161.985901,536.417786 168.992432,526.389954   C169.324280,525.914978 169.828354,525.523132 170.329636,525.220947   C170.548508,525.088989 170.962952,525.281433 171.314880,525.330139   C174.174149,533.803284 169.680328,540.832336 166.952469,548.264709   C162.562836,560.224792 162.588867,570.756592 172.826233,578.938110   C177.295486,582.509888 183.498245,584.887207 189.209137,585.680481   C196.119308,586.640259 203.464859,586.054993 210.399948,584.854919   C219.656357,583.253296 228.982742,581.182800 237.766663,577.930054   C250.676071,573.149536 263.597870,568.000427 275.656219,561.432678   C288.751953,554.299927 301.444031,546.111694 313.236755,536.993042   C324.102142,528.591431 333.635193,518.442810 343.580933,508.882568   C353.114532,499.718506 360.668182,489.007294 366.359802,477.111969   C370.257629,468.965698 372.748108,460.401398 372.087097,451.084076   C371.425262,441.755066 361.225189,430.722961 351.910919,430.014801   C346.144470,429.576385 340.219147,429.973175 334.641876,428.741821   C330.934784,427.923309 327.716309,424.891602 323.529572,422.405426   C325.974121,421.388245 327.516113,420.300903 329.151825,420.134491   C346.913269,418.327454 364.368561,418.673187 378.640961,431.452789   C384.042084,436.288971 387.047455,442.883606 388.027039,450.325745   C390.441437,468.668304 383.315643,484.270569 373.447815,498.669830   C366.156128,509.309875 357.867889,519.361023 349.210236,528.939331   C342.938141,535.878357 335.333282,541.612793 327.970123,547.956177  z" data-index="1" style="opacity: 1;"></path>
<path fill="#3B4246" opacity="1.000000" stroke="none" d=" M471.179016,489.186493   C467.979858,488.659302 464.985901,488.041504 462.133118,487.026855   C453.200928,483.850006 444.157593,483.026489 434.809753,484.860504   C430.319641,485.741455 428.432129,489.238220 428.491333,492.657043   C428.534698,495.161072 430.965790,498.704803 433.290283,499.862701   C438.091339,502.254303 443.556244,503.289520 448.703156,505.016541   C455.578491,507.323517 462.667084,509.206451 469.211792,512.245544   C485.673340,519.889648 483.313477,543.273743 472.698151,552.278809   C459.713898,563.293518 444.805359,562.940674 429.431976,561.264160   C421.096130,560.355042 413.439850,557.581299 406.239716,553.203308   C403.243652,551.381653 403.012726,549.418396 404.166016,546.700439   C405.393066,543.808533 406.867737,541.014099 407.965942,538.076782   C409.563934,533.802856 411.663177,533.607056 415.501038,535.900757   C426.222656,542.308533 437.782593,544.628418 450.268921,542.182861   C454.447052,541.364502 457.345642,539.420288 457.592224,535.410767   C457.852112,531.184631 454.985260,528.341125 450.986084,527.108337   C442.154968,524.385864 433.272369,521.830566 424.413422,519.198181   C403.489868,512.980896 399.114319,491.224548 411.744934,476.150909   C416.987305,469.894501 424.576477,466.517792 432.830841,464.990875   C446.459442,462.469910 459.428772,464.845978 472.201141,469.571259   C476.502441,471.162506 477.909851,473.575348 475.946564,477.896637   C474.306946,481.505432 472.937744,485.237030 471.179016,489.186493  z" data-index="2" style="opacity: 1;"></path>
<path fill="#079CDB" opacity="1.000000" stroke="none" d=" M317.953064,520.039734   C317.633942,518.347107 317.104370,516.663574 317.030823,514.960327   C316.631409,505.709564 316.744354,496.411957 315.780151,487.225006   C315.483032,484.393982 312.929504,480.961639 310.417664,479.347870   C300.154053,472.753815 289.581421,466.625427 278.966553,460.600525   C274.274506,457.937378 268.855286,457.885925 264.269958,460.414673   C253.456146,466.378418 242.888809,472.806152 232.399643,479.332062   C228.798325,481.572662 226.679443,484.932709 226.859329,489.714447   C227.172348,498.035278 227.133224,506.384491 226.814194,514.705444   C226.707581,517.486450 225.470978,520.285217 224.442520,522.957214   C222.241333,528.676086 219.838989,534.317566 217.396866,540.289490   C213.239334,539.783020 208.102127,534.460999 208.063187,529.044983   C207.948135,513.046753 207.900925,497.046112 208.064392,481.048859   C208.126724,474.950287 211.333221,470.309814 216.523880,467.257233   C232.529922,457.844177 248.395370,448.151337 264.807739,439.501221   C268.500580,437.554871 275.027161,437.807373 278.814331,439.789398   C292.373505,446.885590 305.313049,455.165009 318.494019,462.985046   C323.794708,466.129852 329.849243,468.298767 332.983887,475.070618   C333.005371,485.251831 333.005371,494.612549 333.005371,503.973236   C334.001221,501.208405 333.910950,498.440979 334.020630,495.681549   C334.227966,490.466003 334.550232,485.254974 334.824738,480.042084   C335.230286,481.911041 335.951508,483.774384 335.984802,485.649963   C336.105652,492.454407 335.995880,499.262939 335.563477,506.579102   C333.924103,508.610718 329.553223,508.147369 332.037476,512.017761   C328.402161,515.436951 324.822388,518.920776 321.040588,522.169373   C320.685333,522.474548 319.056427,521.296997 318.293213,520.133423   C318.567566,509.710876 318.567566,499.962616 318.567566,490.214386   C318.362732,490.214844 318.157898,490.215271 317.953064,490.215729   C317.953064,500.157074 317.953064,510.098389 317.953064,520.039734  z" data-index="3" style="opacity: 1;"></path>
<path fill="#3A4144" opacity="1.000000" stroke="none" d=" M645.017883,558.905212   C643.489563,559.612915 641.993347,560.831726 640.426697,560.930359   C636.116455,561.201782 631.775330,560.932922 627.448853,561.012329   C623.581909,561.083313 621.833313,559.717712 621.934082,555.454468   C622.193726,544.473877 622.007996,533.482788 622.004883,522.495911   C622.001770,511.700562 617.568359,505.668854 608.993225,506.404785   C599.112793,507.252777 594.722595,510.803467 594.111877,522.512207   C593.540344,533.469604 593.856262,544.482483 594.059143,555.465820   C594.129761,559.290649 592.812134,561.054810 588.994263,561.011780   C584.333801,560.959229 579.670776,560.914429 575.011902,561.011353   C571.933411,561.075317 570.979309,559.576477 570.985474,556.709656   C571.031738,535.235107 571.031616,513.760315 570.970825,492.285828   C570.960693,488.709869 572.656189,487.058044 576.060181,486.996460   C579.387939,486.936218 582.738953,487.243195 586.042114,486.956116   C590.834412,486.539612 593.398682,488.290588 593.079163,493.696136   C606.429993,485.308685 619.815735,483.691956 633.427185,491.796997   C641.463623,496.582336 643.828735,504.650360 645.000977,514.144775   C645.020569,529.654053 645.019226,544.279602 645.017883,558.905212  z" data-index="4" style="opacity: 1;"></path>
<path fill="#3A4144" opacity="1.000000" stroke="none" d=" M547.680969,539.218628   C549.234497,540.762024 550.532654,542.052734 551.827026,543.347290   C557.124817,548.646179 557.136414,549.906738 550.953979,554.360046   C538.530273,563.308899 524.910400,564.186890 510.837128,559.314026   C498.099976,554.903809 489.697235,546.049377 486.484497,532.836060   C480.991974,510.246124 497.388947,488.871429 520.337585,486.807343   C546.181030,484.482941 562.234192,504.618164 562.079590,525.563171   C562.049377,529.651611 560.820496,531.139709 556.642517,531.085144   C541.833374,530.891846 527.020325,530.990234 512.208801,531.007019   C511.265625,531.008118 510.322662,531.254822 509.389038,531.385925   C510.235413,537.738159 516.128784,542.491394 523.577454,543.016113   C530.186279,543.481628 536.539612,542.584839 541.929626,538.442566   C544.208191,536.691406 545.763367,536.991333 547.680969,539.218628  M535.953735,516.967834   C537.042480,516.901428 538.131287,516.835083 539.256348,516.766479   C537.613708,508.134796 532.539978,504.781158 521.891479,505.015472   C514.963867,505.167908 510.354950,509.293030 509.200012,516.967834   C517.876648,516.967834 526.475952,516.967834 535.953735,516.967834  z" data-index="5" style="opacity: 1;"></path>
<path fill="#394044" opacity="1.000000" stroke="none" d=" M770.231567,494.322052   C784.117371,486.250397 798.835449,485.288940 813.740723,488.226440   C824.462158,490.339355 833.158752,500.791321 833.750244,512.803162   C834.525696,528.551758 833.940369,544.367310 833.940369,560.592529   C827.048157,560.592529 820.489746,560.592529 813.566467,560.592529   C813.186951,559.093750 812.763794,557.422607 812.102661,554.811462   C805.266785,561.270264 797.319275,562.528992 788.929260,561.959778   C780.824341,561.409912 773.865417,558.421570 768.931335,551.715881   C760.987549,540.919800 765.836365,523.679138 779.577698,520.104492   C785.433960,518.581116 791.509583,517.748291 797.538940,517.095154   C801.788818,516.634888 806.128784,517.006226 810.420959,517.006226   C810.372498,508.624329 802.569031,503.163788 793.752014,505.267181   C788.665833,506.480469 783.772583,508.488037 778.757324,510.023407   C777.602539,510.376953 776.063354,510.738953 775.118774,510.264862   C772.819824,509.110931 769.167053,497.320221 770.231567,494.322052  M793.591003,531.709473   C788.354675,533.701172 785.836243,540.043762 788.969299,543.348938   C792.443420,547.013916 799.919861,546.940125 806.599182,543.174927   C811.025696,540.679688 811.983704,537.496582 810.143250,531.310791   C804.887939,531.310791 799.618286,531.310791 793.591003,531.709473  z" data-index="6" style="opacity: 1; visibility: visible;"></path>
<path fill="#3C4043" opacity="1.000000" stroke="none" d=" M262.208588,476.241028   C267.605408,467.885590 275.606049,467.482910 280.696289,475.610718   C286.124603,484.278381 290.745880,493.450531 295.747650,502.386658   C300.024292,510.027283 304.308411,517.664124 308.654938,525.265076   C310.493073,528.479431 311.881927,530.898010 307.279053,533.633972   C301.218689,537.236206 295.943024,542.135925 290.126068,546.184875   C288.490753,547.323181 286.144958,547.918945 284.117035,547.938599   C269.312866,548.082397 254.500122,547.756042 239.703857,548.127258   C232.507385,548.307861 226.416122,539.552673 230.446533,532.726196   C241.364624,514.233521 251.514755,495.287537 262.208588,476.241028  M291.451324,530.716553   C289.257141,526.033325 287.254822,521.247925 284.826080,516.689697   C280.648651,508.849487 276.205414,501.150879 271.435181,492.607330   C264.366913,505.862427 257.708496,518.348999 250.385284,531.236511   C251.081085,531.492859 251.775955,531.969788 252.472839,531.972839   C264.457947,532.024536 276.443390,532.036377 288.428406,531.983093   C289.246246,531.979431 290.061462,531.390259 291.451324,530.716553  z" data-index="7" style="opacity: 1;"></path>
<path fill="#3C4043" opacity="1.000000" stroke="none" d=" M291.989746,590.018677   C305.871674,581.936096 319.270325,573.729919 333.000824,566.122620   C340.904877,561.743469 346.312653,556.612122 345.158447,546.654053   C344.905487,544.471130 346.390778,541.639099 347.906982,539.786499   C351.784790,535.048218 356.115082,530.678467 360.300934,526.195435   C361.377258,525.042725 362.588837,524.016357 364.536133,522.179260   C364.758789,524.738464 364.923431,526.136414 364.995117,527.539062   C365.333130,534.151733 365.926849,540.767700 365.882416,547.378784   C365.843689,553.145569 365.466034,558.971680 364.532410,564.655701   C363.312622,572.082092 356.941376,575.038086 351.223511,578.393677   C328.410126,591.781677 305.586182,605.151794 282.794067,618.575928   C276.335205,622.380127 269.818359,623.440979 263.045074,619.518005   C254.644638,614.652771 246.263840,609.753601 236.616867,604.136780   C240.165314,602.725464 242.329071,601.781982 244.549973,601.000732   C247.979050,599.794617 251.591019,599.006409 254.859848,597.474365   C258.380249,595.824402 261.073303,595.552063 264.893982,597.599670   C270.847656,600.790466 277.119537,599.217163 282.778503,595.600342   C285.701965,593.731873 288.687897,591.961121 291.989746,590.018677  z" data-index="8" style="opacity: 1; visibility: visible;"></path>
<path fill="#3A4144" opacity="1.000000" stroke="none" d=" M668.267944,469.968475   C672.233643,469.968872 675.730713,470.039368 679.223877,469.952515   C683.242432,469.852539 685.456421,471.154602 685.072693,475.734558   C684.728027,479.848755 685.000061,484.014618 685.000061,489.002502   C689.575623,489.002502 693.828735,489.163300 698.063354,488.952484   C701.551697,488.778809 702.898560,490.430115 702.999268,493.618591   C703.004517,493.784943 703.002014,493.951630 703.011597,494.117676   C703.754578,506.928192 700.698364,509.437012 687.939941,506.492157   C687.317505,506.348450 686.689941,506.227112 684.990112,505.868927   C684.990112,509.115631 684.989746,511.985382 684.990173,514.855103   C684.991150,521.179932 685.176147,527.511353 684.950378,533.828125   C684.618958,543.100708 689.372803,544.269592 697.169128,542.369690   C698.252563,542.105652 699.267822,541.561707 701.041321,540.859680   C703.006836,545.604370 705.177673,550.044861 706.557190,554.718872   C706.916626,555.936707 705.197876,558.493835 703.774414,559.398804   C690.911499,567.575989 669.214172,560.462769 663.802795,546.244019   C662.602783,543.090942 662.181580,539.497192 662.101135,536.089844   C661.878113,526.639832 662.023804,517.181152 662.023804,507.834595   C661.146912,507.450531 660.717407,507.117676 660.266968,507.086456   C650.967590,506.442383 650.968933,506.449158 651.001709,496.993134   C651.010254,494.543243 651.003052,492.093292 651.003052,489.304504   C654.809937,489.109406 658.060730,488.942810 662.019409,488.739929   C662.019409,484.430511 662.278137,480.309631 661.950134,476.236023   C661.587524,471.732605 663.286743,469.670898 668.267944,469.968475  z" data-index="9" style="visibility: visible; opacity: 1;"></path>
<path fill="#3B4246" opacity="1.000000" stroke="none" d=" M761.914551,504.518311   C760.157410,505.650360 758.515930,506.589386 756.755920,506.950348   C754.026306,507.510162 751.093994,507.278076 748.462830,508.084137   C740.884094,510.405975 738.028198,514.528870 738.016479,522.439270   C738.000183,533.438538 737.855530,544.441345 738.097717,555.435303   C738.190979,559.670471 736.426086,561.136963 732.543152,561.063293   C727.878662,560.974854 723.209351,560.863464 718.547974,560.985291   C715.430542,561.066711 713.966797,560.012207 713.977295,556.701965   C714.045471,535.203979 714.023254,513.705627 714.000427,492.207397   C713.996704,488.692322 715.658691,486.844666 719.157654,487.025848   C724.113953,487.282471 729.148804,487.319275 733.960754,488.341278   C735.575623,488.684265 736.611755,491.752228 738.098694,493.835663   C739.875732,492.725708 742.374084,491.021240 745.011353,489.569092   C746.736633,488.619080 748.607544,487.823914 750.509094,487.322388   C759.440369,484.966553 761.994446,486.944794 762.017700,496.067169   C762.024536,498.733459 761.991760,501.399841 761.914551,504.518311  z" data-index="10" style="opacity: 1; visibility: visible;"></path>

<path fill="#089AD9" opacity="1.000000" stroke="none" d=" M861.410889,453.736267   C868.570496,454.904755 873.310974,458.743958 873.969421,463.838928   C875.044067,472.154388 870.869751,477.370453 862.423523,476.849518   C859.500671,476.669220 856.478455,476.752838 853.691833,476.006134   C848.737488,474.678558 847.385864,469.864471 847.326538,465.942413   C847.279785,462.848663 849.579407,459.016205 852.010193,456.797150   C854.194153,454.803467 857.975952,454.560028 861.410889,453.736267  M868.928467,464.580872   C868.242004,459.880981 864.383301,457.435791 857.807129,457.533630   C854.193420,457.587372 849.642944,461.514832 850.175720,464.981262   C850.575500,467.582275 852.000000,471.106323 854.012390,472.095734   C856.340820,473.240509 859.837585,472.240448 862.783386,471.845703   C867.702881,471.186462 869.597961,468.829041 868.928467,464.580872  z" data-index="12" style="opacity: 1; visibility: hidden;"></path>
<path fill="#FFFFFF" opacity="1.000000" stroke="none" d=" M645.432007,558.763672   C645.019226,544.279602 645.020569,529.654053 645.021362,514.566528   C645.346375,514.728821 645.955933,515.352966 645.956055,515.977234   C645.959656,530.192200 645.896729,544.407227 645.432007,558.763672  z" data-index="13" style="visibility: visible;"></path>
<path fill="#089AD9" opacity="1.000000" stroke="none" d=" M334.888947,479.680054   C334.550232,485.254974 334.227966,490.466003 334.020630,495.681549   C333.910950,498.440979 334.001221,501.208405 333.005371,503.973236   C333.005371,494.612549 333.005371,485.251831 333.012848,475.418884   C333.664581,476.403778 334.308868,477.860901 334.888947,479.680054  z" data-index="14" style="visibility: visible;"></path>
<path fill="#089AD9" opacity="1.000000" stroke="none" d=" M332.354309,511.905121   C329.553223,508.147369 333.924103,508.610718 335.493103,507.042847   C334.778656,508.595795 333.724945,510.194122 332.354309,511.905121  z" data-index="15" style="visibility: visible;"></path>
<path fill="#089AD9" opacity="1.000000" stroke="none" d=" M317.976440,520.021484   C317.953064,510.098389 317.953064,500.157074 317.953064,490.215729   C318.157898,490.215271 318.362732,490.214844 318.567566,490.214386   C318.567566,499.962616 318.567566,509.710876 318.267487,519.756958   C317.967407,520.054871 317.999817,520.003235 317.976440,520.021484  z" data-index="16" style="visibility: visible;"></path>



<path fill="#FFFFFF" opacity="1.000000" stroke="none" d=" M250.717682,531.036011   C264.019562,530.892029 276.989044,530.948547 290.418213,531.039307   C290.061462,531.390259 289.246246,531.979431 288.428406,531.983093   C276.443390,532.036377 264.457947,532.024536 252.472839,531.972839   C251.775955,531.969788 251.081085,531.492859 250.717682,531.036011  z" data-index="18" style="opacity: 1;"></path>

</svg>