<svg xmlns="http://www.w3.org/2000/svg" xmlns:xlink="http://www.w3.org/1999/xlink" version="1.1" id="Layer_1" x="0px" y="0px" enable-background="new 0 0 1024 1024" xml:space="preserve" viewBox="265.98 280.62 500.7 464.9">

<path fill="#3B4145" opacity="1.000000" stroke="none" d=" M361.837280,470.909882   C361.901245,511.727966 362.157562,552.547241 361.913055,593.363464   C361.838867,605.745178 367.138580,614.232483 377.427551,620.265930   C388.875122,626.978882 400.312469,633.709839 411.705597,640.514465   C413.606934,641.650024 415.260406,643.200623 417.775726,645.133789   C415.770264,646.113220 414.718414,646.953613 413.559967,647.143494   C397.252533,649.816162 380.969238,652.704285 364.584167,654.785156   C360.653046,655.284424 356.029358,653.722351 352.327057,651.890076   C345.674072,648.597473 339.043762,644.944336 333.189087,640.424805   C323.746307,633.135315 321.093536,622.341980 321.071136,611.052795   C320.945801,547.907104 320.906281,484.760559 321.183044,421.615845   C321.217285,413.799713 322.691589,405.838928 324.601288,398.221619   C326.808533,389.417419 333.233826,383.596588 340.996033,379.116913   C368.153198,363.444244 395.303589,347.758423 422.354126,331.902771   C447.826172,316.972321 473.311005,302.054169 498.514313,286.678345   C513.361328,277.620636 527.170959,279.283936 541.424927,287.902985   C563.286072,301.121857 585.435730,313.863098 607.446472,326.834900   C624.446716,336.853790 641.405640,346.942810 658.413269,356.949127   C671.573303,364.691772 684.794800,372.329895 697.961792,380.060760   C709.069458,386.582458 714.477478,397.095612 715.471680,409.202942   C715.903564,414.462036 712.565979,420.296143 710.114258,425.478180   C701.857849,442.929626 691.465149,459.088837 679.338562,474.114960   C678.601379,475.028442 677.363403,475.537811 675.416748,476.888641   C675.199463,474.114075 674.952576,472.407928 674.950439,470.701416   C674.935059,458.538818 674.832825,446.373962 675.024048,434.213989   C675.246460,420.071167 669.188660,410.003082 656.901794,402.890198   C627.049194,385.608398 597.457092,367.877075 567.714539,350.404327   C556.559692,343.851227 545.372986,337.341034 534.030823,331.121124   C520.972290,323.959961 508.822479,327.508667 496.879486,334.593506   C468.497955,351.430176 439.991119,368.055725 411.527863,384.754547   C399.798737,391.635803 387.958679,398.333527 376.340149,405.396179   C366.011810,411.674500 361.906494,421.427124 361.730042,434.008606   C361.336151,441.919525 361.024445,449.026337 361.052429,456.131775   C361.071808,461.058746 361.559052,465.983917 361.837280,470.909882  z" data-index="1" style="opacity: 1;"/>
<path fill="#039BDC" opacity="1.000000" stroke="none" d=" M443.783356,691.944580   C433.365784,694.593445 423.411713,697.454041 413.326263,699.733337   C407.769135,700.989197 401.929199,700.951355 396.324707,702.048279   C380.223267,705.199829 363.906494,704.682617 347.800934,703.687073   C327.326782,702.421692 307.737305,697.593994 290.965637,684.145081   C274.159943,670.669006 266.211670,653.560730 265.985870,632.340942   C265.839264,618.563843 268.895172,605.579773 273.551270,592.630737   C280.578033,573.088623 291.418915,555.907837 304.184967,538.132690   C304.993164,540.433472 305.818909,541.727356 305.845306,543.037354   C305.979645,549.700378 306.741821,556.509155 305.643616,562.988831   C304.759186,568.207336 301.884613,573.218018 299.290436,577.993591   C290.931366,593.381714 288.030151,609.987976 290.282928,626.976501   C291.884521,639.054016 298.922882,648.882141 309.169983,656.112122   C319.308228,663.265198 330.773468,666.300293 342.814606,668.083130   C361.546631,670.856750 380.205536,669.415710 398.493713,665.738159   C414.822052,662.454712 430.979828,657.814026 446.757416,652.436157   C464.367950,646.433350 481.667755,639.386902 498.719147,631.918701   C511.620850,626.268005 524.211121,619.745605 536.412781,612.698303   C551.220154,604.146118 565.854675,595.179626 579.858521,585.383789   C593.783508,575.643188 607.324951,565.216675 620.143860,554.066895   C636.370605,539.953064 652.236450,525.332947 667.285950,509.978485   C689.680237,487.130188 708.999146,461.821625 722.652283,432.652100   C729.955811,417.048309 734.134888,400.619781 732.988281,383.185394   C731.847656,365.843048 723.621948,352.353180 709.187805,343.218414   C699.259888,336.935425 687.931458,333.985779 676.053955,332.844879   C668.444397,332.113953 661.187134,332.305481 653.633301,333.565491   C650.316345,334.118805 646.187439,330.967773 642.699829,329.012421   C639.099426,326.993866 635.814270,324.407074 632.427673,322.017151   C631.625183,321.450836 630.968506,320.677887 630.244812,319.999969   C631.126038,319.235504 631.909424,317.989349 632.904846,317.787170   C638.168579,316.717957 643.455261,315.507294 648.791138,315.104858   C657.694702,314.433289 666.652344,313.880035 675.568237,314.087860   C698.500793,314.622406 720.320923,319.208313 738.789673,333.981720   C754.327881,346.411011 764.097595,361.913971 766.194153,382.326843   C767.844482,398.395264 765.177063,413.381470 760.342163,428.583649   C751.901672,455.122772 738.232727,478.750244 721.542603,500.643677   C710.847107,514.673584 699.140564,527.988159 687.226990,541.019714   C672.810486,556.789124 657.234436,571.400696 640.196045,584.404419   C625.935730,595.287903 612.121521,606.769531 597.649231,617.356812   C587.937988,624.461121 577.631897,630.826477 567.216370,636.875610   C552.809631,645.242859 538.186707,653.267029 523.386536,660.916077   C515.235168,665.128906 506.650116,668.587341 498.051819,671.832764   C481.193207,678.196045 464.185730,684.164734 447.251343,690.328247   C446.181000,690.717773 445.209534,691.378906 443.783356,691.944580  z" data-index="2" style="opacity: 1;"/>
<path fill="#039BDC" opacity="1.000000" stroke="none" d=" M421.743927,519.168091   C422.536407,524.135193 420.916138,528.189087 418.320709,532.554443   C413.661072,540.391602 409.767456,548.736023 406.207733,557.145325   C405.069305,559.834717 406.216980,563.421448 405.895935,566.554260   C405.711395,568.355042 405.122284,570.973328 403.905212,571.569336   C402.670319,572.174072 400.173523,571.138367 398.686951,570.139832   C389.444366,563.931580 383.975037,555.547485 383.993164,544.021301   C384.042450,512.702148 384.313995,481.378571 383.875000,450.065491   C383.644470,433.621490 390.683899,422.413361 404.764526,414.576630   C421.541290,405.239349 438.091827,395.488739 454.621002,385.715454   C470.732117,376.189240 486.717896,366.450043 502.711334,356.726471   C516.004456,348.644714 528.104309,352.185913 540.307922,359.700684   C559.034485,371.232178 578.081116,382.243347 596.971924,393.508911   C611.792542,402.347198 626.903320,410.753876 641.260742,420.292267   C649.266846,425.611115 652.651245,434.712769 652.849060,444.194427   C653.248596,463.344055 653.077271,482.508667 652.853333,501.663727   C652.829773,503.681549 651.291565,506.088409 649.758423,507.613190   C642.118958,515.210938 634.356140,522.695374 626.378906,529.935547   C624.353821,531.773560 621.385254,532.571899 618.850159,533.847961   C617.571838,531.077820 615.630249,528.411865 615.174927,525.512512   C614.536499,521.447083 614.998962,517.208008 614.998901,513.043213   C614.998657,496.883820 615.082397,480.723877 614.976135,464.565186   C614.901184,453.170807 610.102112,445.092712 599.540466,439.539886   C586.888489,432.888000 575.073303,424.658508 562.781128,417.303772   C552.642639,411.237640 542.405762,405.327667 532.087708,399.572205   C520.378357,393.040710 509.406372,396.442200 498.836670,402.668396   C479.199432,414.235962 459.695953,426.033661 439.958282,437.426300   C431.415894,442.356934 424.517548,448.306580 421.677185,458.873260   C420.824188,460.142761 420.148865,460.864105 420.145721,461.588440   C420.064056,480.391174 420.041840,499.194275 420.100037,517.997009   C420.101257,518.389038 421.172089,518.777832 421.743927,519.168091  z" data-index="3"/>
<path fill="#3B4144" opacity="1.000000" stroke="none" d=" M577.953491,508.013275   C584.961548,520.673035 591.847290,532.982178 598.700317,545.309570   C600.472046,548.496521 600.973633,551.485840 597.433777,554.023376   C583.433167,564.059692 569.577454,574.303101 555.416016,584.105652   C552.775635,585.933350 548.980286,586.868713 545.709534,586.889282   C514.057739,587.088623 482.398468,586.644836 450.753296,587.143311   C433.175323,587.420227 423.390717,570.051941 432.020233,554.579712   C447.221436,527.324829 462.457764,500.089600 477.627228,472.817108   C485.366852,458.902344 492.507874,444.627625 500.808899,431.059784   C508.933289,417.780640 527.140503,417.884552 535.721741,430.780426   C540.025513,437.248077 543.308289,444.395752 547.043152,451.241211   C557.304504,470.049103 567.560730,488.859833 577.953491,508.013275  M552.178467,530.299194   C540.858032,510.256866 530.854553,489.439117 517.488342,468.801331   C501.684113,497.657654 486.802795,524.828857 471.592194,552.601318   C502.950928,552.601318 532.975586,552.601318 564.420166,552.601318   C560.126343,544.777710 556.330933,537.862305 552.178467,530.299194  z" data-index="4" style="opacity: 1;"/>
<path fill="#3B4145" opacity="1.000000" stroke="none" d=" M615.231201,647.282898   C630.348633,638.231140 645.034119,629.152710 660.059387,620.676270   C670.313049,614.891785 675.713135,605.969788 674.688965,594.977234   C673.342773,580.527771 677.778870,570.079407 689.024658,561.046875   C696.303284,555.200684 701.854248,547.213196 708.243835,540.244202   C710.081543,538.239990 712.143066,536.441040 714.101929,534.547913   C714.569214,534.762451 715.036438,534.976990 715.503723,535.191528   C715.685242,536.879395 716.023865,538.567261 716.024658,540.255188   C716.036194,565.415771 716.326233,590.582458 715.844666,615.734253   C715.601562,628.431763 709.825256,638.538513 698.460571,645.182190   C668.249878,662.843079 638.141602,680.678833 607.973328,698.412354   C583.808105,712.617188 559.704773,726.931152 535.392395,740.880188   C524.679626,747.026489 513.191711,747.057312 502.539276,741.000488   C484.390076,730.681091 466.650330,719.641174 448.759338,708.869507   C448.117004,708.482788 447.695618,707.729126 446.637543,706.553284   C448.810791,705.582214 450.475586,704.705200 452.229279,704.075928   C464.719452,699.593872 477.239349,695.194336 489.723053,690.694519   C493.345245,689.388855 496.446930,689.197815 499.842377,691.861633   C511.903046,701.323059 524.273621,700.848145 537.199402,693.049744   C561.210083,678.563599 585.460144,664.474243 609.624634,650.243469   C611.339172,649.233765 613.168274,648.418396 615.231201,647.282898  z" data-index="5" style="opacity: 1;"/>
<path fill="#17ABE7" opacity="1.000000" stroke="none" d=" M421.814697,518.735474   C421.172089,518.777832 420.101257,518.389038 420.100037,517.997009   C420.041840,499.194275 420.064056,480.391174 420.145721,461.588440   C420.148865,460.864105 420.824188,460.142761 421.498657,459.206909   C421.542023,472.664307 421.149414,486.334076 421.060364,500.005768   C421.020660,506.102753 421.591644,512.203674 421.814697,518.735474  z" data-index="6"/>
<path fill="#2A5555" opacity="1.000000" stroke="none" d=" M361.889221,470.450378   C361.559052,465.983917 361.071808,461.058746 361.052429,456.131775   C361.024445,449.026337 361.336151,441.919525 361.689209,434.456848   C361.897430,446.063873 361.919312,458.027374 361.889221,470.450378  z" data-index="7"/>

</svg>